<?xml version="1.0" encoding="utf-8"?>
<!-- Generator: Adobe Illustrator 24.0.0, SVG Export Plug-In . SVG Version: 6.00 Build 0)  -->
<svg version="1.1" id="图层_1" xmlns="http://www.w3.org/2000/svg" xmlns:xlink="http://www.w3.org/1999/xlink" x="0px" y="0px"
	 viewBox="0 0 30 30" style="enable-background:new 0 0 30 30;" xml:space="preserve">
<style type="text/css">
	.st0{fill:none;}
	.st1{fill:#4F77E1;}
</style>
<title>盒子</title>
<g id="空白页">
	<g id="已选中" transform="translate(-656.000000, -343.000000)">
		<g transform="translate(630.000000, 0.000000)">
			<g id="盒子" transform="translate(0.000000, 313.000000)">
				<g transform="translate(26.000000, 30.000000)">
					<rect id="bg" y="0" class="st0" width="30" height="30"/>
					<g id="形状" transform="translate(1.956522, 0.000000)">
						<path class="st1" d="M23.4,5.6l-9-5.2c-0.8-0.5-1.9-0.5-2.7,0l-9,5.2C2,6,1.9,6.8,2.2,7.5c0.1,0.3,0.3,0.4,0.5,0.5l9.6,5.7
							c0.4,0.3,1,0.3,1.4,0l9.6-5.7c0.7-0.4,0.8-1.2,0.5-1.9L23.4,5.6z M24.1,10.1l-9.4,5.7C14.3,16.1,14,16.5,14,17v11.6
							c0,0.8,0.5,1.4,1.3,1.4c0.3,0,0.4,0,0.7-0.1l9.4-5.7c0.4-0.3,0.7-0.7,0.7-1.2V11.4c0-0.8-0.5-1.4-1.3-1.4
							C24.5,10,24.3,10,24.1,10.1z M0,11.4V23c0,0.5,0.3,0.9,0.7,1.2l9.5,5.6c0.7,0.4,1.5,0.1,1.7-0.5C12,29,12,28.9,12,28.6V17
							c0-0.5-0.3-0.9-0.7-1.2l-9.5-5.6c-0.5-0.4-1.3-0.1-1.7,0.5C0,10.9,0,11.1,0,11.4z"/>
					</g>
				</g>
			</g>
		</g>
	</g>
</g>
</svg>
