<?xml version="1.0" encoding="utf-8"?>
<!-- Generator: Adobe Illustrator 24.0.0, SVG Export Plug-In . SVG Version: 6.00 Build 0)  -->
<svg version="1.1" id="图层_1" xmlns="http://www.w3.org/2000/svg" xmlns:xlink="http://www.w3.org/1999/xlink" x="0px" y="0px"
	 viewBox="0 0 30 30" style="enable-background:new 0 0 30 30;" xml:space="preserve">
<style type="text/css">
	.st0{fill:none;}
	.st1{fill:#999999;}
</style>
<title>聊天</title>
<g id="空白页">
	<g id="未选中" transform="translate(-793.000000, -163.000000)">
		<g transform="translate(767.000000, 0.000000)">
			<g id="聊天" transform="translate(0.000000, 133.000000)">
				<g transform="translate(26.000000, 30.000000)">
					<rect id="bg" y="0" class="st0" width="30" height="30"/>
					<g id="聊天_xFF08_未选中_xFF09_">
						<path id="形状" class="st1" d="M8.6,30c-0.3,0-0.6-0.1-0.8-0.4c-0.4-0.4-0.3-1.1,0.2-1.5l5.8-4.9c0.6-0.5,1.3-0.8,2-0.8h11
							c0.6,0,1.1-0.5,1.1-1.1V3.2c0-0.6-0.5-1.1-1.1-1.1H3.2c-0.6,0-1.1,0.5-1.1,1.1v18.2c0,0.6,0.5,1.1,1.1,1.1h4.3
							c0.6,0,1.1,0.5,1.1,1.1c0,0.6-0.5,1.1-1.1,1.1H3.2c-1.8,0-3.2-1.5-3.2-3.2V3.2C0,1.5,1.4,0,3.2,0h23.6C28.6,0,30,1.5,30,3.2
							v18.2c0,1.8-1.4,3.2-3.2,3.2h-11c-0.3,0-0.5,0.1-0.7,0.3l-5.8,4.9C9.1,29.9,8.8,30,8.6,30z M7.5,14.4c-0.6,0-1.1-0.5-1.1-1.1
							v-1.1c0-0.6,0.5-1.1,1.1-1.1s1.1,0.5,1.1,1.1v1.1C8.6,13.9,8.1,14.4,7.5,14.4z M15,14.4c-0.6,0-1.1-0.5-1.1-1.1v-1.1
							c0-0.6,0.5-1.1,1.1-1.1s1.1,0.5,1.1,1.1v1.1C16.1,13.9,15.6,14.4,15,14.4z M22.5,14.4c-0.6,0-1.1-0.5-1.1-1.1v-1.1
							c0-0.6,0.5-1.1,1.1-1.1s1.1,0.5,1.1,1.1v1.1C23.6,13.9,23.1,14.4,22.5,14.4z"/>
					</g>
				</g>
			</g>
		</g>
	</g>
</g>
</svg>
