<?xml version="1.0" encoding="utf-8"?>
<!-- Generator: Adobe Illustrator 24.0.0, SVG Export Plug-In . SVG Version: 6.00 Build 0)  -->
<svg version="1.1" id="图层_1" xmlns="http://www.w3.org/2000/svg" xmlns:xlink="http://www.w3.org/1999/xlink" x="0px" y="0px"
	 viewBox="0 0 30 30" style="enable-background:new 0 0 30 30;" xml:space="preserve">
<style type="text/css">
	.st0{fill:none;}
	.st1{fill:#4F77E1;}
</style>
<title>聊天</title>
<g id="空白页">
	<g id="已选中" transform="translate(-656.000000, -163.000000)">
		<g transform="translate(630.000000, 0.000000)">
			<g id="聊天" transform="translate(0.000000, 133.000000)">
				<g transform="translate(26.000000, 30.000000)">
					<rect id="bg" y="0" class="st0" width="30" height="30"/>
					<g id="聊天_xFF08_已选中_xFF09_">
						<path id="形状结合" class="st1" d="M27,0c2,0,3,1,3,2.9v19.1c0,2-1,2.9-3,2.9h-9.5l-9.4,4.7c0,0-0.1,0-0.1,0l0,0
							c-0.1,0-0.1-0.1-0.1-0.2l0-0.1l2.6-4.4H3c-2,0-3-1-3-2.9V2.9C0,1,1,0,3,0H27z M7.8,10H7.2c-0.6,0-1,0.4-1,1l0,0v3
							c0,0.6,0.4,1,1,1l0,0h0.5c0.6,0,1-0.4,1-1l0,0v-3C8.8,10.4,8.3,10,7.8,10L7.8,10z M15.2,10h-0.5c-0.6,0-1,0.4-1,1l0,0v3
							c0,0.6,0.4,1,1,1l0,0h0.5c0.6,0,1-0.4,1-1l0,0v-3C16.2,10.4,15.8,10,15.2,10L15.2,10z M22.8,10h-0.5c-0.6,0-1,0.4-1,1l0,0v3
							c0,0.6,0.4,1,1,1l0,0h0.5c0.6,0,1-0.4,1-1l0,0v-3C23.8,10.4,23.3,10,22.8,10L22.8,10z"/>
					</g>
				</g>
			</g>
		</g>
	</g>
</g>
</svg>
