<?xml version="1.0" encoding="utf-8"?>
<!-- Generator: Adobe Illustrator 24.0.0, SVG Export Plug-In . SVG Version: 6.00 Build 0)  -->
<svg version="1.1" id="图层_1" xmlns="http://www.w3.org/2000/svg" xmlns:xlink="http://www.w3.org/1999/xlink" x="0px" y="0px"
	 viewBox="0 0 30 30" style="enable-background:new 0 0 30 30;" xml:space="preserve">
<style type="text/css">
	.st0{fill:none;}
	.st1{fill:#999999;}
</style>
<title>通讯录</title>
<g id="空白页">
	<g id="未选中" transform="translate(-793.000000, -433.000000)">
		<g transform="translate(767.000000, 0.000000)">
			<g id="通讯录" transform="translate(0.000000, 403.000000)">
				<g transform="translate(26.000000, 30.000000)">
					<rect id="bg" y="0" class="st0" width="30" height="30"/>
					<g id="形状" transform="translate(1.875000, 0.000000)">
						<path class="st1" d="M22,0c2,0,3.6,1.6,3.7,3.7l0,0.1v22.4c0,2-1.6,3.7-3.5,3.8L22,30H5.5c-2,0-3.6-1.6-3.7-3.7l0-0.1l0-3.7
							c0-0.5,0.5-1,1-1c0.4,0,0.9,0.5,1,0.9l0,0.1v2.8c0,1.5,0.9,2.6,2.4,2.7l0.1,0h14.9c1.5,0,2.5-1,2.5-2.5l0-0.1V4.6
							c0-1.5-0.9-2.6-2.4-2.6l-0.1,0H6.3C4.8,2,3.9,3,3.8,4.5l0,0.1V7c-0.2,0.7-0.5,1-1,1C2.4,8,2.1,7.7,1.9,7.1l0-0.1V3.8
							c0-2,1.6-3.7,3.5-3.8l0.1,0H22z M11.8,7c2.2-1.5,5.1-0.9,6.5,1.4c1.4,2.2,0.8,5.2-1.3,6.7c2.7,1,4.6,3.6,4.9,6.4l0,0.1
							c-0.1,0.2-0.4,0.9-1,0.9c-0.5,0-0.8-0.3-1-1c-0.3-3.2-2.3-5-5.5-5c-3.2,0-5.2,1.8-5.5,5c-0.1,0.7-0.5,1-1,1c-0.8,0-1-1-1-1
							c0.3-2.9,2.2-5.4,4.9-6.4c-0.5-0.4-1-0.8-1.3-1.4C9,11.5,9.6,8.5,11.8,7L11.8,7z M4.8,18.7c0.5,0,0.8,0.6,0.8,1.2
							c0,0.7-0.3,1.2-0.8,1.2l-0.1,0H1.5c-0.5,0-0.8-0.6-0.8-1.2c0-0.7,0.3-1.2,0.8-1.2l0.1,0H4.8z M3.1,12.5c0.5,0,1.2,0.4,1.2,0.8
							l0,0.1v3.2c0,0.5-0.7,0.9-1.2,0.9c-0.5,0-1.2-0.4-1.2-0.8l0-0.1v-3.2C1.9,12.9,2.6,12.5,3.1,12.5L3.1,12.5z M14.4,8.7
							c-1.5,0-2.5,1.1-2.5,2.5s1,2.5,2.5,2.5s2.5-1,2.5-2.5S15.9,8.7,14.4,8.7z M4.8,8.7c0.5,0,0.8,0.6,0.8,1.2
							c0,0.7-0.3,1.2-0.8,1.2l-0.1,0H1.5c-0.5,0-0.8-0.6-0.8-1.2c0-0.7,0.3-1.2,0.8-1.2l0.1,0H4.8z"/>
					</g>
				</g>
			</g>
		</g>
	</g>
</g>
</svg>
