<?xml version="1.0" encoding="utf-8"?>
<!-- Generator: Adobe Illustrator 24.0.0, SVG Export Plug-In . SVG Version: 6.00 Build 0)  -->
<svg version="1.1" id="图层_1" xmlns="http://www.w3.org/2000/svg" xmlns:xlink="http://www.w3.org/1999/xlink" x="0px" y="0px"
	 viewBox="0 0 30 30" style="enable-background:new 0 0 30 30;" xml:space="preserve">
<style type="text/css">
	.st0{fill:none;}
	.st1{fill:#4F77E1;}
</style>
<title>通讯录</title>
<g id="空白页">
	<g id="已选中" transform="translate(-656.000000, -433.000000)">
		<g transform="translate(630.000000, 0.000000)">
			<g id="通讯录" transform="translate(0.000000, 403.000000)">
				<g transform="translate(26.000000, 30.000000)">
					<rect id="bg" y="0" class="st0" width="30" height="30"/>
					<g id="形状结合" transform="translate(3.125000, 0.000000)">
						<path class="st1" d="M21.4,0c1.7,0,3,1.3,3,3v24c0,1.7-1.3,3-3,3H3.6c-1.7,0-3-1.3-3-3v-5.8h2.9l0.1,0c0.4,0,0.8-0.6,0.8-1.2
							c0-0.6-0.3-1.2-0.7-1.2l-0.1,0H0.6v-2.2l0,0.1c0.1,0.5,0.8,0.8,1.2,0.8c0.5,0,1.2-0.4,1.2-0.8l0-0.1v-3.2l0-0.1
							c-0.1-0.5-0.8-0.8-1.2-0.8c-0.5,0-1.2,0.4-1.2,0.8l0,0.1v-2.2h2.9l0.1,0C4,11.2,4.4,10.7,4.4,10c0-0.6-0.3-1.2-0.7-1.2l-0.1,0
							H0.6V3c0-1.7,1.3-3,3-3H21.4z M17.1,8.4c-1.4-2.2-4.4-2.8-6.5-1.4l0,0c-2.2,1.5-2.8,4.4-1.3,6.7c0.4,0.5,0.8,1,1.3,1.4
							c-2.7,1-4.6,3.6-4.9,6.4c0,0,0.2,1,1,1c0.5,0,0.9-0.3,1-1c0.3-3.2,2.3-5,5.5-5c3.2,0,5.3,1.8,5.5,5c0.2,0.7,0.5,1,1,1
							c0.6,0,0.9-0.7,1-0.9l0,0l0-0.1c-0.3-2.9-2.2-5.4-4.9-6.4C17.9,13.6,18.5,10.6,17.1,8.4z M13.1,8.7c1.5,0,2.5,1.1,2.5,2.5
							s-1,2.5-2.5,2.5s-2.5-1-2.5-2.5S11.6,8.7,13.1,8.7z"/>
					</g>
				</g>
			</g>
		</g>
	</g>
</g>
</svg>
