<?xml version="1.0" encoding="utf-8"?>
<!-- Generator: Adobe Illustrator 24.0.0, SVG Export Plug-In . SVG Version: 6.00 Build 0)  -->
<svg version="1.1" id="图层_1" xmlns="http://www.w3.org/2000/svg" xmlns:xlink="http://www.w3.org/1999/xlink" x="0px" y="0px"
	 viewBox="0 0 30 30" style="enable-background:new 0 0 30 30;" xml:space="preserve">
<style type="text/css">
	.st0{fill:none;}
	.st1{fill:#999999;}
</style>
<title>邮件</title>
<g id="空白页">
	<g id="未选中" transform="translate(-793.000000, -253.000000)">
		<g transform="translate(767.000000, 0.000000)">
			<g id="邮件" transform="translate(0.000000, 223.000000)">
				<g transform="translate(26.000000, 30.000000)">
					<rect id="bg" y="0" class="st0" width="30" height="30"/>
					<g id="邮件_xFF08_未选中_xFF09_" transform="translate(0.000000, 2.500000)">
						<path id="形状" class="st1" d="M4.3,22.5c-1,0-1.8-0.8-1.8-1.8V5l10.9,8.3c0.9,0.7,2.2,0.7,3.2,0L27.5,5v15.7
							c0,1-0.8,1.8-1.8,1.8H4.3z M25.7,2.5c0.2,0,0.4,0,0.5,0.1l-11,8.6c-0.1,0.1-0.3,0.1-0.5,0l-11-8.6c0.2,0,0.3-0.1,0.5-0.1H25.7
							z M25.9,0H4.1C1.8,0,0,1.9,0,4.2v16.6C0,23.1,1.9,25,4.1,25h21.8c2.3,0,4.1-1.9,4.1-4.2V4.2C30,1.9,28.1,0,25.9,0z"/>
					</g>
				</g>
			</g>
		</g>
	</g>
</g>
</svg>
