<?xml version="1.0" encoding="utf-8"?>
<!-- Generator: Adobe Illustrator 24.0.0, SVG Export Plug-In . SVG Version: 6.00 Build 0)  -->
<svg version="1.1" id="图层_1" xmlns="http://www.w3.org/2000/svg" xmlns:xlink="http://www.w3.org/1999/xlink" x="0px" y="0px"
	 viewBox="0 0 30 30" style="enable-background:new 0 0 30 30;" xml:space="preserve">
<style type="text/css">
	.st0{fill:none;}
	.st1{fill:#4F77E1;}
</style>
<title>邮件</title>
<g id="空白页">
	<g id="已选中" transform="translate(-656.000000, -253.000000)">
		<g transform="translate(630.000000, 0.000000)">
			<g id="邮件" transform="translate(0.000000, 223.000000)">
				<g transform="translate(26.000000, 30.000000)">
					<rect id="bg" y="0" class="st0" width="30" height="30"/>
					<g id="邮件_xFF08_已选中_xFF09_" transform="translate(0.000000, 3.500000)">
						<path id="形状" class="st1" d="M3,0h24c1.6,0,3,1.3,3,2.9l-15,8.3L0,3C0,1.3,1.4,0,3,0z M0,6.1l0,14.7c0,1.6,1.3,3,3,3h24
							c1.7,0,3-1.3,3-3V6.1L15.4,14c-0.2,0.1-0.5,0.1-0.7,0L0,6.1z"/>
					</g>
				</g>
			</g>
		</g>
	</g>
</g>
</svg>
