<?xml version="1.0" encoding="utf-8"?>
<!-- Generator: Adobe Illustrator 24.0.0, SVG Export Plug-In . SVG Version: 6.00 Build 0)  -->
<svg version="1.1" id="图层_1" xmlns="http://www.w3.org/2000/svg" xmlns:xlink="http://www.w3.org/1999/xlink" x="0px" y="0px"
	 viewBox="0 0 30 30" style="enable-background:new 0 0 30 30;" xml:space="preserve">
<style type="text/css">
	.st0{fill:none;}
	.st1{fill:#4F77E1;}
</style>
<title>帮助</title>
<g id="空白页">
	<g id="已选中" transform="translate(-656.000000, -930.000000)">
		<g transform="translate(630.000000, 0.000000)">
			<g id="帮助" transform="translate(0.000000, 900.000000)">
				<rect id="背景" y="0" class="st0" width="82" height="90"/>
				<g transform="translate(26.000000, 30.000000)">
					<rect id="矩形" y="0" class="st0" width="30" height="30"/>
					<path id="形状" class="st1" d="M15,0C6.7,0,0,6.7,0,15s6.7,15,15,15s15-6.7,15-15S23.3,0,15,0z M23.8,23.8
						c-1.1,1.1-2.5,2.1-4,2.7c-1.5,0.7-3.2,1-4.9,1s-3.3-0.3-4.9-1c-1.5-0.6-2.8-1.5-4-2.7c-1.1-1.1-2.1-2.5-2.7-4
						c-0.7-1.5-1-3.2-1-4.9s0.3-3.3,1-4.9c0.6-1.5,1.5-2.8,2.7-4c1.1-1.1,2.5-2.1,4-2.7c1.5-0.7,3.2-1,4.9-1s3.3,0.3,4.9,1
						c1.5,0.6,2.8,1.5,4,2.7c1.1,1.1,2.1,2.5,2.7,4c0.7,1.5,1,3.2,1,4.9s-0.3,3.3-1,4.9C25.9,21.4,25,22.7,23.8,23.8z"/>
					<path id="路径" class="st1" d="M19.7,8.1C18.7,6.7,17,6,14.9,6c-1.7,0-3,0.5-3.9,1.5c-0.8,0.8-1.3,1.9-1.4,3.3
						c-0.1,1,0,1.7,0,1.8c0.1,0.6,0.7,1,1.3,0.9c0.6-0.1,1.1-0.6,1-1.2c0,0-0.1-0.6,0-1.3c0.1-0.6,0.3-1.5,0.9-2.1
						c0.5-0.5,1.2-0.8,2.2-0.8c1.3,0,2.3,0.4,2.8,1.1c0.6,0.8,0.5,1.8,0.2,2.4c-0.2,0.4-0.9,1-1.6,1.5c-1.3,1.1-2.7,2.3-2.7,3.7v2.1
						c0,0.6,0.5,1.1,1.2,1.1s1.2-0.5,1.2-1.1v-2.1c0,0,0-0.2,0.5-0.7c0.4-0.4,0.9-0.9,1.5-1.3c0.9-0.8,1.8-1.5,2.1-2.3
						c0.3-0.7,0.4-1.4,0.4-2.2C20.4,9.5,20.1,8.7,19.7,8.1L19.7,8.1z"/>
					<path id="路径_1_" class="st1" d="M13.5,22.5c0,0.8,0.7,1.5,1.5,1.5s1.5-0.7,1.5-1.5S15.8,21,15,21S13.5,21.7,13.5,22.5
						L13.5,22.5z"/>
				</g>
			</g>
		</g>
	</g>
</g>
</svg>
