<?xml version="1.0" encoding="utf-8"?>
<!-- Generator: Adobe Illustrator 24.0.0, SVG Export Plug-In . SVG Version: 6.00 Build 0)  -->
<svg version="1.1" id="图层_1" xmlns="http://www.w3.org/2000/svg" xmlns:xlink="http://www.w3.org/1999/xlink" x="0px" y="0px"
	 viewBox="0 0 30 30" style="enable-background:new 0 0 30 30;" xml:space="preserve">
<style type="text/css">
	.st0{fill:none;}
	.st1{fill:#4F77E1;}
</style>
<title>退出邮箱</title>
<g id="空白页">
	<g id="已选中" transform="translate(-656.000000, -1020.000000)">
		<g transform="translate(630.000000, 0.000000)">
			<g id="退出邮箱" transform="translate(0.000000, 990.000000)">
				<rect id="背景" y="0" class="st0" width="82" height="90"/>
				<g transform="translate(26.000000, 30.000000)">
					<rect id="矩形" y="0" class="st0" width="30" height="30"/>
					<g id="形状结合" transform="translate(2.000000, 0.000000)">
						<path class="st1" d="M10.5,0C11.3,0,12,0.7,12,1.6s-0.7,1.5-1.5,1.6l0,0H3v23.8h7.5c0.8,0,1.5,0.7,1.5,1.6S11.3,30,10.5,30
							l0,0H1.8c-1,0-1.8-0.8-1.8-1.9l0,0V1.9C0,0.8,0.8,0,1.8,0l0,0H10.5z M18.1,8.5c0.6-0.6,1.5-0.6,2.1,0l0,0l5.4,5.9
							c0.6,0.6,0.6,1.6,0,2.2l0,0l-5.4,5.9c-0.6,0.6-1.5,0.6-2.1,0c-0.6-0.6-0.6-1.6,0-2.2l0,0l2.8-3.1H10.6c-0.9,0-1.6-0.8-1.6-1.7
							c0-0.9,0.7-1.7,1.6-1.7l0,0h10.4l-2.8-3.1C17.6,10.1,17.6,9.1,18.1,8.5z"/>
					</g>
				</g>
			</g>
		</g>
	</g>
</g>
</svg>
