<?xml version="1.0" encoding="utf-8"?>
<!-- Generator: Adobe Illustrator 24.0.0, SVG Export Plug-In . SVG Version: 6.00 Build 0)  -->
<svg version="1.1" id="图层_1" xmlns="http://www.w3.org/2000/svg" xmlns:xlink="http://www.w3.org/1999/xlink" x="0px" y="0px"
	 viewBox="0 0 30 30" style="enable-background:new 0 0 30 30;" xml:space="preserve">
<style type="text/css">
	.st0{fill:none;}
	.st1{fill:#4F77E1;}
</style>
<title>设置</title>
<g id="空白页">
	<g id="已选中" transform="translate(-656.000000, -523.000000)">
		<g transform="translate(630.000000, 0.000000)">
			<g id="设置" transform="translate(0.000000, 493.000000)">
				<g transform="translate(26.000000, 30.000000)">
					<rect id="bg" y="0" class="st0" width="30" height="30"/>
					<g id="设置_xFF08_已选中_xFF09_">
						<path id="形状" class="st1" d="M29.7,11.9c0,0.1,0.3,1.8,0.3,3.1c0,1.4-0.3,3.1-0.3,3.1c-0.2,1-0.7,1.6-1.5,1.6h-0.1
							c-2,0-3.7,1.7-3.7,3.9c0,0.7,0.3,1.5,0.3,1.5c0.4,0.9,0.1,1.9-0.7,2.5l-3.8,2.2c-0.8,0.3-1.7,0.1-2.3-0.5
							c-0.4-0.5-1.9-1.9-3-1.9c-1,0-2.4,1.2-3,1.8C11.6,29.7,11,30,10.4,30c-0.3,0-0.5-0.1-0.8-0.2l-3.7-2.2c-0.7-0.6-1-1.6-0.6-2.5
							c0,0,0.3-0.8,0.3-1.5c0-2.1-1.6-3.9-3.7-3.9H1.8c-0.7,0-1.3-0.6-1.4-1.6C0.3,18,0,16.3,0,15c0-1.3,0.3-3,0.3-3.1
							c0.2-1,0.7-1.6,1.5-1.6h0.1c2,0,3.7-1.7,3.7-3.9c0-0.7-0.3-1.5-0.3-1.5C4.9,4.1,5.2,3,6,2.4l3.9-2.3C10.1,0.1,10.4,0,10.6,0
							c0.6,0,1.2,0.2,1.5,0.7c0.4,0.5,1.8,1.8,2.9,1.8c1.1,0,2.5-1.3,2.9-1.7C18.3,0.3,18.9,0,19.5,0c0.3,0,0.5,0.1,0.8,0.2l3.8,2.2
							c0.7,0.5,1,1.6,0.7,2.5c0,0-0.3,0.8-0.3,1.5c0,2.1,1.6,3.9,3.7,3.9h0.2C28.9,10.3,29.5,10.9,29.7,11.9L29.7,11.9z M20,15
							c0-2.8-2.2-5-5-5c-2.8,0-5,2.2-5,5s2.2,5,5,5C17.8,20,20,17.8,20,15z"/>
					</g>
				</g>
			</g>
		</g>
	</g>
</g>
</svg>
