<?xml version="1.0" encoding="utf-8"?>
<!-- Generator: Adobe Illustrator 24.0.0, SVG Export Plug-In . SVG Version: 6.00 Build 0)  -->
<svg version="1.1" id="图层_1" xmlns="http://www.w3.org/2000/svg" xmlns:xlink="http://www.w3.org/1999/xlink" x="0px" y="0px"
	 viewBox="0 0 30 30" style="enable-background:new 0 0 30 30;" xml:space="preserve">
<style type="text/css">
	.st0{fill:none;}
	.st1{fill:#999999;}
</style>
<title>设置</title>
<g id="空白页">
	<g id="未选中" transform="translate(-793.000000, -523.000000)">
		<g transform="translate(767.000000, 0.000000)">
			<g id="设置" transform="translate(0.000000, 493.000000)">
				<g transform="translate(26.000000, 30.000000)">
					<rect id="bg" y="0" class="st0" width="30" height="30"/>
					<g id="设置_xFF08_未选中_xFF09_">
						<path id="形状" class="st1" d="M19.5,30L19.5,30c-0.5,0-1.1-0.2-1.4-0.6c-0.5-0.5-1.9-2-3.2-2c-1.2,0-2.7,1.4-3.1,1.9
							c-0.3,0.4-0.9,0.6-1.4,0.6c-0.3,0-0.5-0.1-0.7-0.2l0,0l-3.7-2.2l0,0c-0.7-0.5-0.9-1.5-0.6-2.3c0,0,0.3-0.8,0.3-1.6
							c0-2.3-1.7-4.1-3.9-4.1H1.6c0,0,0,0,0,0c-0.6,0-1.1-0.6-1.3-1.5C0.3,18.1,0,16.4,0,15c0-1.3,0.3-3,0.3-3.1
							C0.5,11,1,10.4,1.6,10.4h0.1c2.2,0,3.9-1.9,3.9-4.1c0-0.8-0.3-1.6-0.3-1.6C5,3.9,5.2,2.9,5.9,2.5l0,0l3.9-2.3l0,0
							C10.1,0.1,10.3,0,10.6,0c0.5,0,1.1,0.2,1.4,0.6c0.5,0.5,1.9,1.8,3.1,1.8c1.2,0,2.6-1.3,3.1-1.8C18.5,0.3,19,0,19.5,0
							c0.3,0,0.5,0.1,0.7,0.2l0,0l3.8,2.2l0,0c0.7,0.5,0.9,1.5,0.6,2.3c0,0-0.3,0.8-0.3,1.6c0,2.3,1.7,4.1,3.9,4.1h0.1
							c0.6,0,1.1,0.6,1.3,1.5c0,0.1,0.3,1.8,0.3,3.1c0,1.3-0.3,3-0.3,3.1c-0.2,0.9-0.7,1.5-1.3,1.5h-0.1c-2.2,0-3.9,1.9-3.9,4.1
							c0,0.8,0.3,1.6,0.3,1.6c0.3,0.8,0.1,1.8-0.6,2.3l0,0l-3.8,2.2l0,0C20,29.9,19.7,30,19.5,30z M19.1,27.5c0,0,0.1,0,0.1,0
							c0,0,0,0,0,0l3.4-2c-0.1-0.2-0.5-1.2-0.5-2.2c0-3.1,2.3-5.6,5.1-5.7c0-0.2,0.3-1.6,0.3-2.6c0-1-0.2-2.4-0.3-2.6
							c-2.8-0.2-5.1-2.7-5.1-5.7c0-1,0.4-2,0.5-2.2l-3.3-2c0,0,0,0,0,0c-0.1,0-0.1,0-0.1,0c-0.1,0.1-0.5,0.6-1.2,1.1
							c-1,0.8-2,1.2-2.9,1.2c-0.9,0-1.9-0.4-2.9-1.2C11.5,3.1,11,2.6,11,2.5c0,0-0.1,0-0.1,0c0,0,0,0,0,0l-3.4,2
							c0.1,0.2,0.5,1.2,0.5,2.2c0,3.1-2.3,5.5-5.1,5.7c0,0.2-0.3,1.6-0.3,2.6c0,1,0.2,2.4,0.3,2.6c2.8,0.2,5.1,2.7,5.1,5.7
							c0,1-0.4,2-0.5,2.2l3.2,1.9c0,0,0,0,0,0c0,0,0.1,0,0.1,0c0.1-0.1,0.5-0.6,1.2-1.2c1-0.8,2-1.2,2.9-1.2c0.9,0,1.9,0.4,3,1.3
							C18.6,26.8,19.1,27.4,19.1,27.5L19.1,27.5z M15,20c-2.8,0-5-2.2-5-5c0-2.8,2.2-5,5-5c2.8,0,5,2.2,5,5C20,17.8,17.8,20,15,20z
							 M15,12.5c-1.4,0-2.5,1.1-2.5,2.5c0,1.4,1.1,2.5,2.5,2.5c1.4,0,2.5-1.1,2.5-2.5C17.5,13.6,16.4,12.5,15,12.5L15,12.5z"/>
					</g>
				</g>
			</g>
		</g>
	</g>
</g>
</svg>
